<svg width="56" height="57" viewBox="0 0 56 57" fill="none" xmlns="http://www.w3.org/2000/svg">
<path d="M27.5573 20.1257C25.3712 20.1257 23.2745 21.008 21.7287 22.5786C20.1828 24.1492 19.3144 26.2795 19.3144 28.5006C19.3144 30.7218 20.1828 32.8521 21.7287 34.4227C23.2745 35.9933 25.3712 36.8756 27.5573 36.8756C29.7435 36.8756 31.8401 35.9933 33.3859 34.4227C34.9318 32.8521 35.8002 30.7218 35.8002 28.5006C35.8002 26.2795 34.9318 24.1492 33.3859 22.5786C31.8401 21.008 29.7435 20.1257 27.5573 20.1257ZM27.5573 14.5423C31.2009 14.5423 34.6953 16.0129 37.2717 18.6306C39.8481 21.2483 41.2955 24.7987 41.2955 28.5006C41.2955 32.2026 39.8481 35.753 37.2717 38.3707C34.6953 40.9884 31.2009 42.459 27.5573 42.459C23.9137 42.459 20.4193 40.9884 17.8429 38.3707C15.2665 35.753 13.8191 32.2026 13.8191 28.5006C13.8191 24.7987 15.2665 21.2483 17.8429 18.6306C20.4193 16.0129 23.9137 14.5423 27.5573 14.5423ZM45.417 13.8444C45.417 14.7699 45.0551 15.6575 44.411 16.3119C43.7669 16.9663 42.8933 17.334 41.9824 17.334C41.0715 17.334 40.198 16.9663 39.5538 16.3119C38.9097 15.6575 38.5479 14.7699 38.5479 13.8444C38.5479 12.9189 38.9097 12.0313 39.5538 11.3769C40.198 10.7225 41.0715 10.3548 41.9824 10.3548C42.8933 10.3548 43.7669 10.7225 44.411 11.3769C45.0551 12.0313 45.417 12.9189 45.417 13.8444ZM27.5573 6.16732C20.7596 6.16732 19.6496 6.18686 16.4871 6.32923C14.3329 6.43253 12.8876 6.72565 11.5468 7.25607C10.4247 7.67464 9.41026 8.34555 8.57934 9.21861C7.71934 10.0628 7.05811 11.0934 6.64499 12.2336C6.12294 13.6015 5.83444 15.0672 5.73552 17.253C5.59265 20.335 5.57341 21.4126 5.57341 28.5006C5.57341 35.41 5.59265 36.5351 5.73278 39.7483C5.83444 41.9341 6.12294 43.4054 6.64225 44.7649C7.10935 45.9793 7.65887 46.8531 8.57109 47.7799C9.49705 48.7179 10.3571 49.279 11.5385 49.7424C12.8959 50.2756 14.3411 50.5716 16.4843 50.6721C19.5177 50.8172 20.5783 50.834 27.5546 50.834C34.355 50.834 35.4623 50.8144 38.6248 50.6721C40.7735 50.5688 42.2187 50.2757 43.5623 49.748C44.6834 49.3274 45.6974 48.6568 46.5298 47.7855C47.4557 46.8475 48.008 45.9737 48.4641 44.7705C48.9862 43.397 49.2774 41.9286 49.3764 39.7455C49.5192 36.6663 49.5357 35.5859 49.5357 28.5006C49.5357 21.5941 49.5165 20.4662 49.3764 17.253C49.2747 15.0699 48.9834 13.5959 48.4641 12.2336C48.05 11.0947 47.3899 10.0644 46.5325 9.21861C45.702 8.34439 44.6875 7.67249 43.5651 7.25328C42.2187 6.72286 40.7735 6.42973 38.6248 6.32923C35.5942 6.18407 34.5336 6.16732 27.5546 6.16732M27.5546 0.583984C35.0199 0.583984 35.9514 0.611901 38.8831 0.751484C41.8066 0.891068 43.8014 1.35728 45.5516 2.04961C47.3651 2.75869 48.8928 3.71903 50.4205 5.2684C51.8176 6.66394 52.8987 8.35204 53.5885 10.2152C54.2672 11.9935 54.7288 14.0203 54.8661 16.9934C54.9953 19.9693 55.031 20.9157 55.031 28.5006C55.031 36.0856 55.0035 37.032 54.8661 40.0079C54.7288 42.981 54.2672 45.005 53.5885 46.7861C52.9006 48.6502 51.8193 50.3387 50.4205 51.7329C49.0465 53.152 47.3852 54.2503 45.5516 54.9517C43.8014 55.6412 41.8066 56.1102 38.8831 56.2498C35.9514 56.381 35.0199 56.4173 27.5546 56.4173C20.0892 56.4173 19.1578 56.3894 16.226 56.2498C13.3025 56.1102 11.3105 55.6412 9.5575 54.9517C7.72297 54.2523 6.06119 53.1537 4.68867 51.7329C3.29131 50.3375 2.21019 48.6494 1.52064 46.7861C0.839223 45.0078 0.380366 42.981 0.242983 40.0079C0.111097 37.032 0.078125 36.0856 0.078125 28.5006C0.078125 20.9157 0.105601 19.9693 0.242983 16.9934C0.380366 14.0203 0.839223 11.9963 1.52064 10.2152C2.2082 8.3509 3.28958 6.66234 4.68867 5.2684C6.06159 3.84809 7.72325 2.74956 9.5575 2.04961C11.3077 1.35728 13.2998 0.891068 16.226 0.751484C19.1605 0.620276 20.092 0.583984 27.5573 0.583984" fill="white"/>
</svg>
