<svg width="75" height="76" viewBox="0 0 75 76" fill="none" xmlns="http://www.w3.org/2000/svg">
<circle cx="37.4385" cy="37.9971" r="34.9385" stroke="black" stroke-width="5"/>
<path d="M37.0923 3.05859C40.6839 3.05885 44.6364 6.09838 47.8394 12.625C50.9624 18.9889 52.9644 27.9563 52.9644 37.9971C52.9644 48.0379 50.9624 57.0053 47.8394 63.3691C44.6364 69.8958 40.6839 72.9353 37.0923 72.9355C33.5006 72.9355 29.5482 69.8958 26.3452 63.3691C23.2222 57.0053 21.2192 48.0379 21.2192 37.9971C21.2192 27.9563 23.2222 18.9889 26.3452 12.625C29.5482 6.09835 33.5006 3.05859 37.0923 3.05859Z" stroke="black" stroke-width="5"/>
<path d="M2.08008 26.9043H71.7572" stroke="black" stroke-width="5"/>
<path d="M2.08008 48.3965H71.7572" stroke="black" stroke-width="5"/>
</svg>
