<svg width="63" height="73" viewBox="0 0 63 73" fill="none" xmlns="http://www.w3.org/2000/svg">
<path d="M3 70V3" stroke="black" stroke-width="5" stroke-linecap="round" stroke-linejoin="round"/>
<path d="M3.5 11.0001C9.33333 8.16678 22.5 3.20011 28.5 6.00011C36 9.50011 49 14.5002 60 6.00011V48C57 51.8333 46.5 57.2 28.5 48C21.7 44.8 9 49.6667 3.5 52.5" stroke="black" stroke-width="5" stroke-linecap="round" stroke-linejoin="round"/>
<path d="M21 6V46.5" stroke="black" stroke-width="5" stroke-linejoin="round"/>
<path d="M1.9909 24.7126C0.727662 25.2699 0.155395 26.7458 0.712706 28.009C1.27002 29.2723 2.74586 29.8445 4.0091 29.2872L1.9909 24.7126ZM27 21.5L26.5655 23.9619L27 21.5ZM4.0091 29.2872C6.87346 28.0235 10.5985 26.3437 14.6461 25.1474C18.7121 23.9457 22.864 23.3087 26.5655 23.9619L27.4345 19.038C22.636 18.1912 17.6212 19.0543 13.2289 20.3525C8.81816 21.6561 4.79321 23.4763 1.9909 24.7126L4.0091 29.2872ZM26.5655 23.9619C28.0449 24.223 29.7989 24.9171 32.1362 25.86C34.3769 26.7639 37.019 27.8342 39.9428 28.5836C45.9137 30.1141 53.0599 30.3062 61.2325 25.675L58.7675 21.3249C51.9401 25.1937 46.171 25.0184 41.1842 23.7402C38.6291 23.0852 36.2818 22.1408 34.0067 21.2231C31.8281 20.3442 29.5398 19.4095 27.4345 19.038L26.5655 23.9619Z" fill="black"/>
</svg>
