<svg width="26" height="25" viewBox="0 0 26 25" fill="none" xmlns="http://www.w3.org/2000/svg">
<path d="M13.0004 1.75024C13.1106 1.7503 13.2189 1.77488 13.3177 1.82153L13.4125 1.87524C13.5043 1.93644 13.5816 2.01682 13.6381 2.1106L13.6879 2.21021L16.2347 8.26587L16.4681 8.82251L17.0697 8.87427L23.5717 9.43774H23.5736C23.7208 9.45011 23.8612 9.50615 23.9769 9.5979C24.0925 9.68958 24.1784 9.8131 24.224 9.95337C24.2696 10.0938 24.2725 10.2447 24.2328 10.387C24.1976 10.5126 24.1288 10.6247 24.0365 10.7161L23.9906 10.7571L19.058 15.0618L18.6068 15.4563L18.7416 16.0403L20.2191 22.4495V22.4524C20.2442 22.56 20.2458 22.6714 20.223 22.7786L20.1918 22.884C20.1532 22.9876 20.0923 23.0807 20.014 23.1575L19.9301 23.2288C19.8109 23.3154 19.669 23.3649 19.5219 23.3713C19.3753 23.3777 19.2297 23.3412 19.1039 23.2659H19.1049L13.514 19.8752L12.9955 19.5608L12.476 19.8762L6.89978 23.2659C6.8056 23.3223 6.70051 23.3571 6.59216 23.3684L6.48181 23.3713C6.37135 23.3666 6.26356 23.3382 6.16638 23.2874L6.07263 23.2288C5.98322 23.1636 5.90965 23.0798 5.85681 22.9836L5.81091 22.884C5.77239 22.7805 5.75796 22.67 5.76697 22.5608L5.78357 22.4524L5.78455 22.4495L7.26013 16.0461L7.39392 15.4631L6.94373 15.0686L2.00916 10.7571L2.00427 10.7532L1.92712 10.675C1.87922 10.6196 1.8398 10.5574 1.80994 10.4905L1.77185 10.387C1.74209 10.2804 1.73705 10.169 1.75525 10.0608L1.78162 9.95337C1.81583 9.84812 1.87252 9.75219 1.94763 9.67212L2.02869 9.5979C2.1154 9.52915 2.21579 9.48048 2.32263 9.45532L2.43201 9.43774H2.43396L8.93787 8.87427L9.53943 8.82251L9.7738 8.26489L12.3119 2.20923L12.3129 2.20825C12.3553 2.10665 12.4194 2.01589 12.5004 1.94263L12.5873 1.87524C12.7095 1.7938 12.8535 1.75024 13.0004 1.75024Z" stroke="black" stroke-width="2"/>
</svg>
