<svg width="28" height="28" viewBox="0 0 28 28" fill="none" xmlns="http://www.w3.org/2000/svg">
<path d="M14.0004 2.75024C14.1106 2.7503 14.2189 2.77488 14.3177 2.82153L14.4125 2.87524C14.5043 2.93644 14.5816 3.01682 14.6381 3.1106L14.6879 3.21021L17.2347 9.26587L17.4681 9.82251L18.0697 9.87427L24.5717 10.4377H24.5736C24.7208 10.4501 24.8612 10.5061 24.9769 10.5979C25.0925 10.6896 25.1784 10.8131 25.224 10.9534C25.2696 11.0938 25.2725 11.2447 25.2328 11.387C25.1976 11.5126 25.1288 11.6247 25.0365 11.7161L24.9906 11.7571L20.058 16.0618L19.6068 16.4563L19.7416 17.0403L21.2191 23.4495V23.4524C21.2442 23.56 21.2458 23.6714 21.223 23.7786L21.1918 23.884C21.1532 23.9876 21.0923 24.0807 21.014 24.1575L20.9301 24.2288C20.8109 24.3154 20.669 24.3649 20.5219 24.3713C20.3753 24.3777 20.2297 24.3412 20.1039 24.2659H20.1049L14.514 20.8752L13.9955 20.5608L13.476 20.8762L7.89978 24.2659C7.8056 24.3223 7.70051 24.3571 7.59216 24.3684L7.48181 24.3713C7.37135 24.3666 7.26356 24.3382 7.16638 24.2874L7.07263 24.2288C6.98322 24.1636 6.90965 24.0798 6.85681 23.9836L6.81091 23.884C6.77239 23.7805 6.75796 23.67 6.76697 23.5608L6.78357 23.4524L6.78455 23.4495L8.26013 17.0461L8.39392 16.4631L7.94373 16.0686L3.00916 11.7571L3.00427 11.7532L2.92712 11.675C2.87922 11.6196 2.8398 11.5574 2.80994 11.4905L2.77185 11.387C2.74209 11.2804 2.73705 11.169 2.75525 11.0608L2.78162 10.9534C2.81583 10.8481 2.87252 10.7522 2.94763 10.6721L3.02869 10.5979C3.1154 10.5292 3.21579 10.4805 3.32263 10.4553L3.43201 10.4377H3.43396L9.93787 9.87427L10.5394 9.82251L10.7738 9.26489L13.3119 3.20923L13.3129 3.20825C13.3553 3.10665 13.4194 3.01589 13.5004 2.94263L13.5873 2.87524C13.7095 2.7938 13.8535 2.75024 14.0004 2.75024Z" stroke="black" stroke-width="2"/>
</svg>
