<svg width="26" height="25" viewBox="0 0 26 25" fill="none" xmlns="http://www.w3.org/2000/svg">
<path d="M24.6484 11.5103L19.7156 15.8153L21.1933 22.2247C21.2715 22.5598 21.2492 22.9105 21.1291 23.2329C21.0091 23.5554 20.7967 23.8353 20.5184 24.0377C20.2402 24.24 19.9085 24.3559 19.5647 24.3708C19.221 24.3857 18.8805 24.2989 18.5858 24.1213L12.9956 20.7306L7.4175 24.1213C7.12281 24.2989 6.78231 24.3857 6.43856 24.3708C6.09482 24.3559 5.76309 24.24 5.48484 24.0377C5.20659 23.8353 4.99417 23.5554 4.87415 23.2329C4.75412 22.9105 4.73181 22.5598 4.81 22.2247L6.28547 15.8219L1.35156 11.5103C1.0906 11.2853 0.901902 10.9882 0.809124 10.6563C0.716345 10.3244 0.723618 9.97251 0.830032 9.64474C0.936445 9.31697 1.13726 9.02792 1.4073 8.81382C1.67733 8.59973 2.00457 8.47013 2.34797 8.44128L8.85141 7.87799L11.39 1.82299C11.5226 1.50528 11.7462 1.23389 12.0327 1.043C12.3192 0.852103 12.6557 0.750244 13 0.750244C13.3443 0.750244 13.6808 0.852103 13.9673 1.043C14.2538 1.23389 14.4774 1.50528 14.61 1.82299L17.1562 7.87799L23.6575 8.44128C24.0009 8.47013 24.3281 8.59973 24.5982 8.81382C24.8682 9.02792 25.069 9.31697 25.1754 9.64474C25.2819 9.97251 25.2891 10.3244 25.1963 10.6563C25.1036 10.9882 24.9149 11.2853 24.6539 11.5103H24.6484Z" fill="#231F20"/>
</svg>
