<svg width="39" height="37" viewBox="0 0 39 37" fill="none" xmlns="http://www.w3.org/2000/svg">
<path d="M19.5005 1.68799C19.7903 1.68805 20.0745 1.76299 20.3257 1.90479L20.4312 1.97021C20.6723 2.13093 20.8671 2.35068 20.9976 2.60791L21.0493 2.72021L21.0513 2.72314L24.9614 12.022L25.1948 12.5786L25.7964 12.6304L35.7808 13.4956H35.7837C36.1146 13.5235 36.4297 13.6487 36.6899 13.855C36.9502 14.0613 37.1439 14.3399 37.2466 14.6558C37.3492 14.9718 37.3565 15.3114 37.2671 15.6313C37.1903 15.906 37.0448 16.1554 36.8462 16.3579L36.731 16.4595L29.1558 23.0698L28.7046 23.4644L28.8394 24.0483L31.1079 33.8911L31.1089 33.894C31.1748 34.1767 31.1671 34.4711 31.0864 34.7485L31.0474 34.8657C30.9461 35.1378 30.7767 35.3793 30.5562 35.5659L30.4585 35.6421C30.2238 35.8128 29.9494 35.9199 29.6626 35.9536L29.5386 35.9634C29.2078 35.9777 28.8799 35.8946 28.5962 35.7241H28.5972L20.0122 30.5171L19.4927 30.2026L18.9741 30.5181L10.4106 35.7231C10.1622 35.8728 9.87984 35.9555 9.59131 35.9644L9.46729 35.9634C9.17719 35.9508 8.89544 35.8638 8.6499 35.7114L8.54736 35.6421C8.3126 35.4713 8.12578 35.2436 8.00537 34.981L7.9585 34.8657C7.85735 34.5939 7.82786 34.3013 7.87256 34.0161L7.896 33.894L7.89697 33.8911L10.1626 24.0581L10.2974 23.4751L9.84619 23.0806L2.26904 16.4595L2.26416 16.4556L2.17334 16.3706C1.96875 16.166 1.81997 15.9113 1.7417 15.6313C1.66347 15.3514 1.6592 15.0569 1.72803 14.7759L1.76123 14.6558C1.86383 14.3399 2.0577 14.0613 2.31787 13.855C2.54574 13.6743 2.81623 13.5556 3.10205 13.5103L3.2251 13.4956H3.22803L13.2153 12.6304L13.8179 12.5786L14.0513 12.021L17.9497 2.72217L17.9507 2.72021C18.0623 2.45289 18.2408 2.21965 18.4683 2.04248L18.5688 1.97021C18.8446 1.78648 19.1691 1.68799 19.5005 1.68799Z" stroke="black" stroke-width="2"/>
</svg>
