<svg width="32" height="31" viewBox="0 0 32 31" fill="none" xmlns="http://www.w3.org/2000/svg">
<path d="M15.9443 2.9375C16.0839 2.9375 16.2208 2.96867 16.3457 3.02734L16.4658 3.09473C16.5816 3.17157 16.6782 3.27248 16.749 3.38965L16.8105 3.51172L16.8115 3.51367L19.6406 10.2178L19.876 10.7734L20.4766 10.8252L27.7002 11.4492H27.7021C27.8418 11.4609 27.9767 11.5032 28.0967 11.5723L28.2109 11.6494C28.3202 11.7357 28.4085 11.8449 28.4697 11.9678L28.5215 12.0947C28.5642 12.2259 28.5777 12.3643 28.5605 12.5L28.5332 12.6348C28.4888 12.7932 28.4004 12.9347 28.2822 13.0498L28.2305 13.0957L22.75 17.8623L22.2969 18.2568L22.4316 18.8418L24.0742 25.9385V25.9404C24.1056 26.0746 24.1067 26.2139 24.0781 26.3477L24.04 26.4795C23.9757 26.6516 23.861 26.8014 23.7109 26.9102C23.5985 26.9916 23.4698 27.0471 23.334 27.0732L23.1953 27.0898C23.0091 27.0978 22.8251 27.0506 22.666 26.9551H22.665L16.457 23.2031L15.9385 22.8896L15.4219 23.2031L9.22656 26.9551C9.10716 27.0268 8.97382 27.0717 8.83594 27.0859L8.69727 27.0898C8.51097 27.0818 8.33085 27.019 8.18066 26.9102C8.06816 26.8286 7.97638 26.7234 7.91016 26.6035L7.85254 26.4795C7.80428 26.3503 7.78558 26.2123 7.79688 26.0762L7.81836 25.9404V25.9385L9.45801 18.8496L9.59375 18.2646L9.14062 17.8701L3.6582 13.0967L3.55566 12.9941C3.49552 12.9247 3.44556 12.8472 3.4082 12.7637L3.36133 12.6348C3.32412 12.5021 3.31713 12.3633 3.33984 12.2285L3.37305 12.0947C3.41579 11.9636 3.48674 11.8434 3.58105 11.7432L3.68359 11.6494C3.79281 11.5632 3.91967 11.5023 4.05469 11.4707L4.19238 11.4492H4.19434L11.4209 10.8252L12.0225 10.7734L12.2568 10.2168L15.0771 3.5127L15.0781 3.51172C15.1312 3.38495 15.2116 3.27156 15.3135 3.17969L15.4229 3.09473C15.577 2.99241 15.7584 2.9375 15.9443 2.9375Z" stroke="black" stroke-width="2"/>
</svg>
