<svg width="113" height="85" viewBox="0 0 113 85" fill="none" xmlns="http://www.w3.org/2000/svg">
<path d="M19 48.4658C16.7453 48.4658 14.5412 47.6803 12.6665 46.2085C10.7918 44.7367 9.33061 42.6447 8.46777 40.1972C7.60493 37.7496 7.37918 35.0564 7.81905 32.4582C8.25892 29.8599 9.34466 27.4732 10.939 25.5999C12.5333 23.7267 14.5646 22.451 16.776 21.9341C18.9874 21.4173 21.2795 21.6826 23.3626 22.6964C25.4457 23.7102 27.2261 25.427 28.4788 27.6297C29.7314 29.8324 30.4 32.4221 30.4 35.0713C30.3966 38.6225 29.1945 42.0272 27.0573 44.5383C24.9201 47.0494 22.0224 48.4619 19 48.4658ZM19 27.6299C17.7474 27.6299 16.5229 28.0663 15.4814 28.884C14.4399 29.7017 13.6281 30.8639 13.1488 32.2236C12.6694 33.5833 12.544 35.0796 12.7884 36.5231C13.0327 37.9665 13.6359 39.2925 14.5217 40.3332C15.4074 41.3739 16.5359 42.0826 17.7644 42.3697C18.993 42.6569 20.2664 42.5095 21.4237 41.9463C22.5809 41.3831 23.5701 40.4293 24.266 39.2055C24.9619 37.9818 25.3333 36.5431 25.3333 35.0713C25.3333 33.0977 24.6661 31.205 23.4783 29.8094C22.2906 28.4139 20.6797 27.6299 19 27.6299ZM38 78.2315V76.7432C38 70.8225 35.9982 65.1442 32.435 60.9576C28.8718 56.771 24.0391 54.419 19 54.419C13.9609 54.419 9.12816 56.771 5.56497 60.9576C2.00178 65.1442 0 70.8225 0 76.7432L0 78.2315C0 79.0209 0.266904 79.778 0.741996 80.3363C1.21709 80.8945 1.86145 81.2081 2.53333 81.2081C3.20522 81.2081 3.84958 80.8945 4.32467 80.3363C4.79976 79.778 5.06667 79.0209 5.06667 78.2315V76.7432C5.06667 72.4013 6.53464 68.2373 9.14765 65.1671C11.7607 62.0969 15.3047 60.3721 19 60.3721C22.6954 60.3721 26.2393 62.0969 28.8524 65.1671C31.4654 68.2373 32.9333 72.4013 32.9333 76.7432V78.2315C32.9333 79.0209 33.2002 79.778 33.6753 80.3363C34.1504 80.8945 34.7948 81.2081 35.4667 81.2081C36.1385 81.2081 36.7829 80.8945 37.258 80.3363C37.7331 79.778 38 79.0209 38 78.2315Z" fill="#231F20"/>
<path d="M94 48.4658C91.7453 48.4658 89.5412 47.6803 87.6665 46.2085C85.7918 44.7367 84.3306 42.6447 83.4678 40.1972C82.6049 37.7496 82.3792 35.0564 82.819 32.4582C83.2589 29.8599 84.3447 27.4732 85.939 25.5999C87.5333 23.7267 89.5646 22.451 91.776 21.9341C93.9874 21.4173 96.2795 21.6826 98.3626 22.6964C100.446 23.7102 102.226 25.427 103.479 27.6297C104.731 29.8324 105.4 32.4221 105.4 35.0713C105.397 38.6225 104.195 42.0272 102.057 44.5383C99.9201 47.0494 97.0224 48.4619 94 48.4658ZM94 27.6299C92.7474 27.6299 91.5229 28.0663 90.4814 28.884C89.4399 29.7017 88.6281 30.8639 88.1488 32.2236C87.6694 33.5833 87.544 35.0796 87.7884 36.5231C88.0327 37.9665 88.6359 39.2925 89.5217 40.3332C90.4074 41.3739 91.5359 42.0826 92.7644 42.3697C93.993 42.6569 95.2664 42.5095 96.4237 41.9463C97.5809 41.3831 98.5701 40.4293 99.266 39.2055C99.9619 37.9818 100.333 36.5431 100.333 35.0713C100.333 33.0977 99.6661 31.205 98.4783 29.8094C97.2906 28.4139 95.6797 27.6299 94 27.6299ZM113 78.2315V76.7432C113 70.8225 110.998 65.1442 107.435 60.9576C103.872 56.771 99.0391 54.419 94 54.419C88.9609 54.419 84.1282 56.771 80.565 60.9576C77.0018 65.1442 75 70.8225 75 76.7432V78.2315C75 79.0209 75.2669 79.778 75.742 80.3363C76.2171 80.8945 76.8615 81.2081 77.5333 81.2081C78.2052 81.2081 78.8496 80.8945 79.3247 80.3363C79.7998 79.778 80.0667 79.0209 80.0667 78.2315V76.7432C80.0667 72.4013 81.5346 68.2373 84.1476 65.1671C86.7607 62.0969 90.3047 60.3721 94 60.3721C97.6954 60.3721 101.239 62.0969 103.852 65.1671C106.465 68.2373 107.933 72.4013 107.933 76.7432V78.2315C107.933 79.0209 108.2 79.778 108.675 80.3363C109.15 80.8945 109.795 81.2081 110.467 81.2081C111.139 81.2081 111.783 80.8945 112.258 80.3363C112.733 79.778 113 79.0209 113 78.2315Z" fill="#231F20"/>
<path d="M57.5 44.5146C64.7339 44.5146 71.621 47.8212 76.6631 53.6201L77.1289 54.1689C81.8718 59.901 84.4999 67.4819 84.5 75.3418V77.2979C84.4999 78.6701 84.0274 80.0214 83.1357 81.0469C82.2383 82.0789 80.9721 82.708 79.5996 82.708C78.2271 82.7079 76.9609 82.079 76.0635 81.0469C75.1719 80.0214 74.7003 78.6701 74.7002 77.2979V75.3418C74.7001 69.9732 72.8436 64.8592 69.5908 61.1182C66.3438 57.3839 61.9885 55.335 57.5 55.335C53.0115 55.335 48.6562 57.3839 45.4092 61.1182C42.1564 64.8592 40.2999 69.9732 40.2998 75.3418V77.2979C40.2997 78.6701 39.8281 80.0214 38.9365 81.0469C38.0391 82.079 36.7729 82.7079 35.4004 82.708C34.0279 82.708 32.7617 82.0789 31.8643 81.0469C30.9726 80.0214 30.5001 78.6701 30.5 77.2979V75.3418C30.5001 67.2284 33.3007 59.4123 38.3369 53.6201L38.8145 53.084C43.8093 47.6177 50.492 44.5146 57.5 44.5146ZM54.8008 1.74805C57.91 1.17353 61.0982 1.60299 64 2.98535L64.5742 3.27344C67.4139 4.77022 69.8122 7.13036 71.5186 10.0674L71.8496 10.6602C73.4546 13.657 74.2998 17.0961 74.2998 20.5967V20.5986C74.2949 25.5987 72.5673 30.4269 69.4453 34.0176C66.3175 37.6149 62.0285 39.6876 57.502 39.6934H57.5C54.3374 39.6934 51.2605 38.6808 48.6104 36.8037L48.0859 36.417C45.4973 34.4276 43.4685 31.6731 42.1973 28.4824L41.9531 27.8389C40.7059 24.3755 40.3816 20.574 41.0156 16.9082L41.1455 16.2246C41.8487 12.8215 43.3638 9.68311 45.5488 7.16992L45.9941 6.67676C48.2576 4.25949 51.0866 2.58381 54.1807 1.87598L54.8008 1.74805ZM57.5 12.3203C56.2496 12.3203 55.0067 12.7194 53.9092 13.4971L53.6914 13.6572C52.6108 14.4877 51.7285 15.6667 51.166 17.0781L51.0586 17.3643C50.5047 18.9024 50.3574 20.6043 50.6416 22.248C50.9259 23.8919 51.6234 25.3779 52.6211 26.5254C53.617 27.6708 54.8594 28.4214 56.1758 28.7227C57.4891 29.0231 58.8537 28.8716 60.1074 28.2744L60.3418 28.1572C61.5033 27.545 62.5251 26.5574 63.2705 25.2744L63.415 25.0146C64.1183 23.7012 64.5 22.1716 64.5 20.5967C64.5 18.3393 63.7188 16.2091 62.3789 14.668C61.0447 13.1335 59.2834 12.3203 57.5 12.3203Z" fill="#231F20" stroke="white" stroke-width="3"/>
</svg>
