<svg width="64" height="51" viewBox="0 0 64 51" fill="none" xmlns="http://www.w3.org/2000/svg">
<path d="M25.4278 36.6769L41.7049 25.9428L25.4278 15.2087V36.6769ZM61.6827 8.66084C62.0904 10.3425 62.3727 12.5967 62.5609 15.4591C62.7804 18.3215 62.8745 20.7904 62.8745 22.9372L63.0627 25.9428C63.0627 33.7787 62.5609 39.5393 61.6827 43.2247C60.8987 46.445 59.0797 48.5202 56.257 49.4147C54.783 49.8799 52.0858 50.2019 47.946 50.4166C43.8689 50.6671 40.1368 50.7744 36.6869 50.7744L31.7003 50.9891C18.5594 50.9891 10.3739 50.4166 7.14353 49.4147C4.32092 48.5202 2.5019 46.445 1.71784 43.2247C1.31013 41.543 1.02786 39.2889 0.839689 36.4264C0.620152 33.564 0.526065 31.0952 0.526065 28.9483L0.337891 25.9428C0.337891 18.1069 0.839689 12.3462 1.71784 8.66084C2.5019 5.4406 4.32092 3.36533 7.14353 2.47082C8.61756 2.00568 11.3147 1.68365 15.4546 1.46897C19.5317 1.21851 23.2638 1.11117 26.7137 1.11117L31.7003 0.896484C44.8411 0.896484 53.0267 1.46897 56.257 2.47082C59.0797 3.36533 60.8987 5.4406 61.6827 8.66084Z" fill="white"/>
</svg>
