<svg width="23" height="22" viewBox="0 0 23 22" fill="none" xmlns="http://www.w3.org/2000/svg">
<path d="M16.6328 2C17.6477 2.00166 18.6678 2.42289 19.4834 3.24805L19.6436 3.41797C20.4373 4.30395 20.934 5.52312 20.9941 6.84277L21 7.10742C20.9993 10.2715 18.8502 13.4013 16.2168 15.9756C14.3548 17.7957 12.4571 19.1356 11.5 19.7676C10.5429 19.1356 8.64518 17.7957 6.7832 15.9756C4.14979 13.4013 2.00072 10.2715 2 7.10742C2.00144 5.77566 2.44787 4.52882 3.20117 3.59961L3.35645 3.41797C4.19602 2.48092 5.28413 2.00206 6.36621 2C7.80955 2.00004 9.04899 2.67735 9.84082 3.85449L11.5 6.32129L13.1592 3.85449C13.9508 2.67761 15.1899 2.00035 16.6328 2Z" fill="#231F20" stroke="#231F20" stroke-width="4"/>
</svg>
