<svg width="46" height="42" viewBox="0 0 46 42" fill="none" xmlns="http://www.w3.org/2000/svg">
<path d="M33.2656 2C35.8941 2.0032 38.4449 3.04703 40.4209 4.9541L40.8086 5.34668C42.7093 7.37199 43.8487 10.0953 43.9863 12.9873L44 13.5674C43.9992 20.3411 39.2302 26.7615 33.8652 31.7676C29.036 36.2737 24.1015 39.2816 23 39.9287C21.8985 39.2816 16.964 36.2737 12.1348 31.7676C6.76977 26.7615 2.00079 20.3411 2 13.5674C2.00318 10.6554 3.02327 7.87666 4.82129 5.76074L5.19141 5.34668C7.21473 3.19089 9.93016 2.00369 12.7334 2C16.3368 2.00038 19.4336 3.63798 21.3652 6.37891L23 8.69922L24.6348 6.37891C26.5662 3.63823 29.6626 2.00068 33.2656 2Z" stroke="#231F20" stroke-width="4"/>
</svg>
