<svg width="82" height="83" viewBox="0 0 82 83" fill="none" xmlns="http://www.w3.org/2000/svg">
<path d="M41.1085 29.125C37.8782 29.125 34.7802 30.4288 32.496 32.7496C30.2118 35.0703 28.9286 38.2179 28.9286 41.5C28.9286 44.7821 30.2118 47.9297 32.496 50.2504C34.7802 52.5712 37.8782 53.875 41.1085 53.875C44.3388 53.875 47.4367 52.5712 49.7209 50.2504C52.0051 47.9297 53.2883 44.7821 53.2883 41.5C53.2883 38.2179 52.0051 35.0703 49.7209 32.7496C47.4367 30.4288 44.3388 29.125 41.1085 29.125ZM41.1085 20.875C46.4923 20.875 51.6556 23.048 55.4626 26.9159C59.2695 30.7839 61.4082 36.0299 61.4082 41.5C61.4082 46.9701 59.2695 52.2161 55.4626 56.0841C51.6556 59.952 46.4923 62.125 41.1085 62.125C35.7246 62.125 30.5613 59.952 26.7544 56.0841C22.9474 52.2161 20.8087 46.9701 20.8087 41.5C20.8087 36.0299 22.9474 30.7839 26.7544 26.9159C30.5613 23.048 35.7246 20.875 41.1085 20.875ZM67.4981 19.8438C67.4981 21.2113 66.9635 22.5228 66.0117 23.4898C65.06 24.4568 63.7692 25 62.4232 25C61.0772 25 59.7864 24.4568 58.8347 23.4898C57.8829 22.5228 57.3483 21.2113 57.3483 19.8438C57.3483 18.4762 57.8829 17.1647 58.8347 16.1977C59.7864 15.2307 61.0772 14.6875 62.4232 14.6875C63.7692 14.6875 65.06 15.2307 66.0117 16.1977C66.9635 17.1647 67.4981 18.4762 67.4981 19.8438ZM41.1085 8.5C31.0641 8.5 29.4239 8.52888 24.7509 8.73925C21.5679 8.89188 19.4324 9.325 17.4511 10.1087C15.7931 10.7272 14.2942 11.7186 13.0664 13.0086C11.7956 14.256 10.8186 15.7789 10.2082 17.4636C9.43678 19.4849 9.01048 21.6505 8.86432 24.8804C8.6532 29.4344 8.62479 31.0266 8.62479 41.5C8.62479 51.7094 8.65321 53.3717 8.86026 58.1196C9.01048 61.3495 9.43678 63.5234 10.2041 65.5322C10.8943 67.3266 11.7063 68.6178 13.0542 69.9873C14.4224 71.3733 15.6932 72.2024 17.4389 72.8871C19.4446 73.675 21.5801 74.1123 24.7469 74.2607C29.229 74.4753 30.7962 74.5 41.1044 74.5C51.1528 74.5 52.7889 74.4711 57.4619 74.2607C60.6368 74.1081 62.7724 73.675 64.7577 72.8954C66.4142 72.2738 67.9125 71.2829 69.1424 69.9955C70.5106 68.6095 71.3267 67.3184 72.0006 65.5405C72.772 63.511 73.2024 61.3413 73.3485 58.1155C73.5596 53.5656 73.584 51.9692 73.584 41.5C73.584 31.2948 73.5556 29.6283 73.3485 24.8804C73.1983 21.6546 72.768 19.4766 72.0006 17.4636C71.3886 15.7807 70.4134 14.2584 69.1465 13.0086C67.9193 11.7169 66.4203 10.7241 64.7617 10.1046C62.7724 9.32088 60.6368 8.88775 57.4619 8.73925C52.9838 8.52475 51.4167 8.5 41.1044 8.5M41.1044 0.25C52.1353 0.25 53.5116 0.29125 57.8436 0.4975C62.1634 0.70375 65.1109 1.39263 67.6971 2.41563C70.3766 3.46338 72.634 4.88237 74.8913 7.17175C76.9558 9.23382 78.5532 11.7282 79.5724 14.4812C80.5752 17.1089 81.2573 20.1036 81.4603 24.4967C81.6511 28.894 81.7039 30.2924 81.7039 41.5C81.7039 52.7076 81.6633 54.106 81.4603 58.5033C81.2573 62.8964 80.5752 65.887 79.5724 68.5187C78.556 71.2733 76.9582 73.7682 74.8913 75.8283C72.8612 77.9251 70.4063 79.548 67.6971 80.5844C65.1109 81.6032 62.1634 82.2962 57.8436 82.5025C53.5116 82.6964 52.1353 82.75 41.1044 82.75C30.0735 82.75 28.6972 82.7088 24.3652 82.5025C20.0454 82.2962 17.102 81.6032 14.5117 80.5844C11.801 79.551 9.34554 77.9277 7.31748 75.8283C5.25272 73.7664 3.65524 71.272 2.63636 68.5187C1.62949 65.8911 0.951477 62.8964 0.74848 58.5033C0.553602 54.106 0.504883 52.7076 0.504883 41.5C0.504883 30.2924 0.545482 28.894 0.74848 24.4967C0.951477 20.1036 1.62949 17.113 2.63636 14.4812C3.6523 11.7265 5.25017 9.23145 7.31748 7.17175C9.34612 5.07308 11.8014 3.44988 14.5117 2.41563C17.0979 1.39263 20.0414 0.70375 24.3652 0.4975C28.7012 0.303625 30.0776 0.25 41.1085 0.25" fill="#231F20"/>
</svg>
