<svg width="92" height="91" viewBox="0 0 92 91" fill="none" xmlns="http://www.w3.org/2000/svg">
<path d="M45.806 0C20.5211 0 0 20.1901 0 45.0672C0 69.9442 20.5211 90.1343 45.806 90.1343C71.0909 90.1343 91.6119 69.9442 91.6119 45.0672C91.6119 20.1901 71.0909 0 45.806 0ZM67.0599 30.6457C66.3728 37.7663 63.3955 55.0721 61.8839 63.049C61.2426 66.429 59.96 67.5557 58.7691 67.6909C56.1123 67.9162 54.0969 65.9783 51.5317 64.3109C47.5008 61.697 45.2105 60.0745 41.317 57.5508C36.7822 54.6214 39.7138 52.999 42.3247 50.3851C43.0118 49.7091 54.7381 39.2084 54.9672 38.262C54.999 38.1187 54.9947 37.9699 54.9548 37.8285C54.9149 37.6871 54.8405 37.5575 54.7381 37.4508C54.4633 37.2255 54.0968 37.3156 53.7762 37.3607C53.364 37.4508 46.9511 41.6421 34.4461 49.9344C32.6139 51.1512 30.9648 51.7822 29.499 51.7371C27.85 51.692 24.7352 50.8358 22.3991 50.0696C19.5133 49.1683 17.2689 48.6725 17.4521 47.0952C17.5437 46.284 18.6888 45.4728 20.8417 44.6165C34.2171 38.893 43.1034 35.1073 47.5466 33.3046C60.2807 28.0768 62.8916 27.1755 64.6322 27.1755C64.9987 27.1755 65.869 27.2656 66.4187 27.7163C66.8767 28.0768 67.0141 28.5726 67.0599 28.9331C67.0141 29.2035 67.1057 30.0147 67.0599 30.6457Z" fill="#231F20"/>
</svg>
