<svg width="94" height="75" viewBox="0 0 94 75" fill="none" xmlns="http://www.w3.org/2000/svg">
<path d="M37.6918 53.5825L61.743 37.7216L37.6918 21.8607V53.5825ZM91.2625 12.1856C91.865 14.6705 92.282 18.0012 92.5601 22.2308C92.8845 26.4604 93.0235 30.1084 93.0235 33.2805L93.3015 37.7216C93.3015 49.3 92.5601 57.812 91.2625 63.2576C90.104 68.0159 87.4162 71.0823 83.2455 72.404C81.0674 73.0913 77.082 73.5672 70.965 73.8844C64.9406 74.2545 59.4259 74.4131 54.3284 74.4131L46.9601 74.7303C27.543 74.7303 15.4479 73.8844 10.6747 72.404C6.50402 71.0823 3.81621 68.0159 2.65768 63.2576C2.05524 60.7727 1.63816 57.4419 1.36012 53.2124C1.03573 48.9828 0.896701 45.3348 0.896701 42.1626L0.618652 37.7216C0.618652 26.1432 1.36012 17.6312 2.65768 12.1856C3.81621 7.42733 6.50402 4.36089 10.6747 3.03915C12.8528 2.35185 16.8382 1.87602 22.9552 1.5588C28.9796 1.18872 34.4943 1.03011 39.5918 1.03011L46.9601 0.712891C66.3772 0.712891 78.4723 1.5588 83.2455 3.03915C87.4162 4.36089 90.104 7.42733 91.2625 12.1856Z" fill="#231F20"/>
</svg>
